<svg width="112" height="112" viewBox="0 0 112 112" fill="none" xmlns="http://www.w3.org/2000/svg">
<circle cx="56" cy="56" r="56" fill="#EEF0F6"/>
<path d="M56.0854 58.6928C59.1979 58.6928 62.3305 58.4655 65.4173 58.7412C71.931 59.3209 77.0471 65.1329 77.0442 71.6413C77.0442 73.4119 76.3926 74.9324 75.0206 76.072C70.6591 79.6928 65.6888 81.9722 60.0354 82.7196C52.4527 83.72 45.5046 82.0404 39.2224 77.7318C38.062 76.936 36.913 76.0152 36.047 74.9267C34.5607 73.0566 34.8523 70.8341 35.3839 68.694C36.8901 62.6206 42.1091 58.6161 48.5371 58.5649C51.0551 58.545 53.5703 58.5621 56.0883 58.5621V58.6957L56.0854 58.6928Z" fill="#ACBADC"/>
<path d="M42.8379 41.0909C42.8493 33.8692 48.7457 28.0146 56.0225 28.0032C63.2851 27.9918 69.1843 33.8294 69.23 41.071C69.2757 48.2671 63.2651 54.2411 56.0054 54.2184C48.7571 54.1956 42.8293 48.2841 42.8407 41.0909H42.8379Z" fill="#ACBADC"/>
</svg>
